<svg xmlns="http://www.w3.org/2000/svg" version="1.1" xmlns:xlink="http://www.w3.org/1999/xlink" xmlns:svgjs="http://svgjs.dev/svgjs" width="2000" height="1871" viewBox="0 0 2000 1871"><g transform="matrix(1,0,0,1,-1.7887798742137875,-3.0163487799832183)"><svg viewBox="0 0 265 248" data-background-color="#3a3d53" preserveAspectRatio="xMidYMid meet" height="1871" width="2000" xmlns="http://www.w3.org/2000/svg" xmlns:xlink="http://www.w3.org/1999/xlink"><g id="tight-bounds" transform="matrix(1,0,0,1,0.23701333333332286,0.40002634420794436)"><svg viewBox="0 0 264.52597333333335 247.19999999999996" height="247.19999999999996" width="264.52597333333335"><g><svg viewBox="0 0 264.52597333333335 247.19999999999996" height="247.19999999999996" width="264.52597333333335"><g><svg viewBox="0 0 264.52597333333335 247.19999999999996" height="247.19999999999996" width="264.52597333333335"><g id="textblocktransform"><svg viewBox="0 0 264.52597333333335 247.19999999999996" height="247.19999999999996" width="264.52597333333335" id="textblock"><g><svg viewBox="0 0 264.52597333333335 247.19999999999996" height="247.19999999999996" width="264.52597333333335"><path d="M263.907 53.02C262.663 27.36 259.119 20.227 259.119 20.227 248.237-6.202 234.657-0.506 222.458 3.292 200.919 3.446 179.467 9.091 157.977 12.119 112.872 12.581 67.382 4.986 22.5 23.717 18.285 29.464-4.374 24.846 0.75 56.304 2.093 69.39 6.993 83.913 6.843 95.922 7.515 98.026 8.448 93.202 8.846 96.23 10.238 104.39 12.514 100.541 14.38 105.365 11.781 118.246 13.646 128.971 15.424 140.21 12.29 143.135 8.274 141.749 6.47 151.449 6.284 158.479 5.277 157.145 4.17 156.837 3.361 156.632 1.732 157.402 2.006 159.608 2.939 167.152-1.066 171.514 1.446 178.904-0.282 186.91 2.64 193.838 2.242 202.511 2.192 204.255 2.466 205.744 2.901 206.154 4.829 208.361 2.018 212.672 2.317 217.342 22.09 249.262 43.542 227.195 63.8 241.872 69.06 231.608 65.106 245.516 67.208 243.36 68.849 240.846 70.043 251.263 71.896 245.362 72.182 243.668 71.747 239.665 72.766 240.435 73.301 240.846 73.774 240.743 73.848 238.382 73.96 234.841 72.978 237.048 72.717 235.201 75.54 225.861 74.843 248.081 77.492 247.158 77.368 244.438 76.597 240.538 78.176 241.051 79.743 237.151 79.793 233.918 81.185 242.693 81.235 244.592 81.484 245.926 81.882 246.85 86.234 237.305 90.562 250.237 95.126 245.926 97.924 241.205 100.61 248.492 103.446 246.696 104.441 245.259 105.448 242.693 106.406 247.004 118.133 247.928 130.631 244.079 141.748 247.158 171.458 241.41 203.207 249.518 234.533 241.923 241.92 238.998 249.593 234.841 256.793 231.506 256.793 231.506 262.626 222.371 262.626 181.316S263.869 145.393 264.056 112.703C264.242 80.013 265.113 78.679 263.869 53.02Z" opacity="1" fill="#ffffff" data-fill-palette-color="tertiary"></path><g transform="matrix(1,0,0,1,55.76832000000002,26.230666666666668)"><svg width="152.98933333333332" viewBox="2.25 -35.15 27.85 35.45" height="194.73866666666663" data-palette-color="#3a3d53"><path d="M28.25-5.1Q28.9-4.7 29.23-4.28 29.55-3.85 29.55-3.2L29.55-3.2Q29.55-2.15 28.9-1.38 28.25-0.6 27.15-0.6L27.15-0.6Q26.65-0.6 26.08-0.8 25.5-1 25.1-1.25L25.1-1.25 9.75-10.85 9.75-1.95Q9.75-0.9 9.1-0.3 8.45 0.3 7.35 0.3L7.35 0.3Q6.1 0.3 5.43-0.4 4.75-1.1 4.75-2.35L4.75-2.35Q4.75-10.4 4.7-18.25L4.7-18.25 4.55-26.8 4.35-26.7Q4.05-26.6 3.9-26.6L3.9-26.6Q2.25-26.6 2.25-29.2L2.25-29.2Q2.25-30.1 2.85-30.68 3.45-31.25 4.5-31.8L4.5-31.8 4.5-32.85Q4.5-33.95 5.18-34.55 5.85-35.15 7.2-35.15L7.2-35.15Q8.2-35.15 8.75-34.83 9.3-34.5 9.3-34L9.3-34 9.3-33.8Q13-35.05 16-35.05L16-35.05Q20.25-35.05 23.45-33.73 26.65-32.4 28.38-29.98 30.1-27.55 30.1-24.35L30.1-24.35Q30.1-21 28.18-18.63 26.25-16.25 23-15.08 19.75-13.9 15.8-13.9L15.8-13.9Q14.45-13.9 13.4-14.1L13.4-14.1 28.25-5.1ZM16.2-30.5Q14.55-30.5 13.03-30.13 11.5-29.75 9.5-29L9.5-29 9.55-27.1Q9.75-22 9.75-18.55L9.75-18.55Q12.1-18 15.4-18L15.4-18Q19.65-18 22.1-19.63 24.55-21.25 24.55-24.2L24.55-24.2Q24.55-27.05 22.28-28.78 20-30.5 16.2-30.5L16.2-30.5Z" opacity="1" transform="matrix(1,0,0,1,0,0)" fill="#3a3d53" class="wordmark-text-0" data-fill-palette-color="quaternary" id="text-0"></path></svg></g></svg></g></svg></g></svg></g><g></g></svg></g><defs></defs></svg><rect width="264.52597333333335" height="247.19999999999996" fill="none" stroke="none" visibility="hidden"></rect></g></svg></g></svg>